<svg xmlns="http://www.w3.org/2000/svg" viewBox="0 0 747.36 595.28"><defs fill="#0d6efd"><style>.cls-1{isolation:isolate;}.cls-2{mix-blend-mode:multiply;}</style></defs><g class="cls-1"><g id="Layer_1" data-name="Layer 1"><g class="cls-2"><path d="M345.6,50.48l-57.94,33L286.19,332.4h0l43.11-73.65a58.12,58.12,0,0,1,4.39-67.87l.56-95.41L560.22,174.8l.2-.56Z" fill="#0d6efd"/><path d="M337.63,98.74v0L380,173.26c.68,0,1.35,0,2,0a58.15,58.15,0,0,1,54.33,37.44l82.38,48.21-181.67,156,.39.45L552.08,291.15l.39-66.68Z" fill="#0d6efd"/><path d="M514.24,258.85l-85.33-.5a58.16,58.16,0,0,1-61.29,30.31l-82.6,47L240.75,100.36l-.58.12.23,247.91L298,382.07,514.26,258.88Z" fill="#0d6efd"/></g><path d="M377.62,264.51A33.34,33.34,0,1,1,411,231.17,33.38,33.38,0,0,1,377.62,264.51Zm0-65.42a32.08,32.08,0,1,0,32.08,32.08A32.12,32.12,0,0,0,377.62,199.09Z" fill="#0d6efd"/><path d="M346.43,221.93a.64.64,0,0,1-.55-1c.31-.51,7.85-12.6,31.74-12.6s31.43,12.09,31.74,12.6a.64.64,0,0,1-.22.87.62.62,0,0,1-.86-.21c-.08-.12-7.54-12-30.66-12S347,221.51,347,221.63A.65.65,0,0,1,346.43,221.93Z" fill="#0d6efd"/><path d="M377.62,235.9c-.21,0-.42,0-.63-.06v16.85l.63,0,.64,0V235.84C378.05,235.86,377.84,235.9,377.62,235.9Z" fill="#0d6efd"/><path d="M378.26,226.51v-28a.64.64,0,0,0-.64-.63.63.63,0,0,0-.63.63v28a2.92,2.92,0,0,1,1.27,0Z" fill="#0d6efd"/><path d="M377,254v9.91a.63.63,0,0,0,.63.63.64.64,0,0,0,.64-.63V254H377Z" fill="#0d6efd"/><path d="M410.33,230.54h-9.91c0,.21,0,.42,0,.63s0,.42,0,.63h9.91a.63.63,0,1,0,0-1.26Z" fill="#0d6efd"/><path d="M382.29,231.8h16.85c0-.21,0-.41,0-.63s0-.41,0-.63H382.29a3.34,3.34,0,0,1,0,1.26Z" fill="#0d6efd"/><path d="M360.12,231.8H373a2.87,2.87,0,0,1,0-1.26H360.12c0,.21.06.41.06.63S360.14,231.59,360.12,231.8Z" fill="#0d6efd"/><path d="M350.78,230.54h-5.87a.63.63,0,0,0,0,1.26h5.88a4.34,4.34,0,0,1-.07-.63C350.72,231,350.76,230.75,350.78,230.54Z" fill="#0d6efd"/><path d="M356.27,226.52c1.45-19.53,11.7-25.94,11.81-26a.64.64,0,0,0,.22-.87.64.64,0,0,0-.87-.22c-.48.29-11,6.79-12.44,27.06a3.41,3.41,0,0,1,.46-.05A5.56,5.56,0,0,1,356.27,226.52Z" fill="#0d6efd"/><path d="M355.45,235.9a3.44,3.44,0,0,1-.45-.05,49.54,49.54,0,0,0,2.56,13c.52.24,1.1.47,1.67.69a46.42,46.42,0,0,1-3-13.72A5.69,5.69,0,0,1,355.45,235.9Z" fill="#0d6efd"/><path d="M360.12,230.54a4.73,4.73,0,0,0-3.85-4,5.56,5.56,0,0,0-.82-.08,3.41,3.41,0,0,0-.46.05,4.71,4.71,0,0,0-4.21,4c0,.21-.06.41-.06.63a4.34,4.34,0,0,0,.07.63,4.7,4.7,0,0,0,4.21,4,3.44,3.44,0,0,0,.45.05,5.69,5.69,0,0,0,.83-.08,4.72,4.72,0,0,0,3.84-4c0-.21.06-.41.06-.63S360.14,230.75,360.12,230.54Z" fill="#0d6efd"/><path d="M367.43,262.91a.62.62,0,0,0,.32.09.63.63,0,0,0,.33-1.18c-.08,0-4.68-2.89-8.16-10.59-.59-.21-1.16-.43-1.71-.65C361.83,259.47,367.09,262.71,367.43,262.91Z" fill="#0d6efd"/><path d="M397.58,244.58a5,5,0,0,1,1.27.36,56.36,56.36,0,0,0,1.57-13.14h-1.28A53.89,53.89,0,0,1,397.58,244.58Z" fill="#0d6efd"/><path d="M387.82,199.43a.64.64,0,0,0-.66,1.09c.12.07,11.76,7.41,12,30h1.28C400.2,207.15,388.33,199.74,387.82,199.43Z" fill="#0d6efd"/><path d="M387.16,261.82a.64.64,0,0,0-.21.87.63.63,0,0,0,.54.31.66.66,0,0,0,.33-.09c.29-.18,4.3-2.68,7.72-9.16a4.74,4.74,0,0,1-1.21-.55C391,259.4,387.23,261.78,387.16,261.82Z" fill="#0d6efd"/><path d="M400.42,230.54h-1.28c0,.22,0,.41,0,.63s0,.42,0,.63h1.28c0-.21,0-.41,0-.63S400.42,230.75,400.42,230.54Z" fill="#0d6efd"/><path d="M409.36,241.36a.63.63,0,0,0-1.09-.64c0,.06-2,3.27-7.18,6.36a4.35,4.35,0,0,1,.46,1.28C407.05,245.12,409.2,241.63,409.36,241.36Z" fill="#0d6efd"/><path d="M347,240.72a.64.64,0,0,0-.87-.22.62.62,0,0,0-.22.86c.2.34,3.45,5.6,12.33,9.22-.22-.55-.44-1.13-.65-1.73C349.88,245.37,347,240.79,347,240.72Z" fill="#0d6efd"/><path d="M378.26,252.69V254a55,55,0,0,0,14.79-2,4.89,4.89,0,0,1-.59-1.19A53,53,0,0,1,378.26,252.69Z" fill="#0d6efd"/><path d="M359.23,249.54c.23.58.45,1.16.69,1.69A52.61,52.61,0,0,0,377,254v-1.28A49.21,49.21,0,0,1,359.23,249.54Z" fill="#0d6efd"/><path d="M377.62,252.71l-.63,0V254h1.27v-1.28Z" fill="#0d6efd"/><path d="M357.56,248.85c.21.6.43,1.18.65,1.73.55.22,1.12.44,1.71.65-.24-.53-.46-1.11-.69-1.69C358.66,249.32,358.08,249.09,357.56,248.85Z" fill="#0d6efd"/><path d="M382.29,230.54a4.71,4.71,0,0,0-4-4,2.92,2.92,0,0,0-1.27,0,4.69,4.69,0,0,0-4,4,2.87,2.87,0,0,0,0,1.26,4.71,4.71,0,0,0,4,4c.21,0,.42.06.63.06s.43,0,.64-.06a4.73,4.73,0,0,0,4-4,3.34,3.34,0,0,0,0-1.26Z" fill="#0d6efd"/><path d="M401.55,248.36a4.35,4.35,0,0,0-.46-1.28,4.75,4.75,0,0,0-2.24-2.14,5,5,0,0,0-1.27-.36,4.91,4.91,0,0,0-.66-.06,4.73,4.73,0,0,0-4.73,4.73,4.81,4.81,0,0,0,.27,1.52,4.58,4.58,0,0,0,1.87,2.43,4.74,4.74,0,0,0,1.21.55,4.86,4.86,0,0,0,1.38.23,4.74,4.74,0,0,0,4.72-4.73A4.26,4.26,0,0,0,401.55,248.36Z" fill="#0d6efd"/><path d="M378.84,275.88a.64.64,0,0,1,0-1.27c.56,0,1.11,0,1.66-.07a.62.62,0,0,1,.67.59.62.62,0,0,1-.59.67c-.56,0-1.13.06-1.7.08Zm-5.06-.15h0c-.57-.05-1.14-.11-1.7-.18a.62.62,0,0,1-.55-.7.61.61,0,0,1,.7-.55l1.66.17a.63.63,0,0,1-.06,1.26Zm11.76-.54a.64.64,0,0,1-.11-1.26c.55-.1,1.09-.21,1.63-.33a.64.64,0,0,1,.28,1.24c-.56.12-1.12.24-1.68.34Zm-18.41-.55a.39.39,0,0,1-.15,0c-.56-.13-1.11-.28-1.66-.43a.63.63,0,0,1,.35-1.22c.53.15,1.07.29,1.61.42a.63.63,0,0,1,.46.77A.62.62,0,0,1,367.13,274.64Zm24.94-1.16a.63.63,0,0,1-.21-1.23c.52-.18,1-.37,1.56-.58a.65.65,0,0,1,.82.36.63.63,0,0,1-.36.82c-.53.21-1.07.41-1.61.59A.51.51,0,0,1,392.07,273.48Zm-31.35-.94a.52.52,0,0,1-.24-.05c-.53-.21-1.06-.44-1.58-.69a.63.63,0,0,1,.54-1.14c.5.23,1,.45,1.52.66a.63.63,0,0,1-.24,1.22Zm37.53-1.75a.62.62,0,0,1-.56-.34.63.63,0,0,1,.26-.85c.49-.26,1-.53,1.45-.81a.64.64,0,0,1,.87.23.63.63,0,0,1-.23.86c-.49.29-1,.57-1.5.83A.6.6,0,0,1,398.25,270.79Zm-43.54-1.31a.63.63,0,0,1-.33-.09c-.49-.3-1-.6-1.45-.92a.64.64,0,0,1-.18-.88.63.63,0,0,1,.88-.17c.46.3.93.6,1.41.89a.64.64,0,0,1,.21.87A.62.62,0,0,1,354.71,269.48Zm49.23-2.3a.63.63,0,0,1-.51-.25.65.65,0,0,1,.13-.89c.45-.33.89-.67,1.32-1a.63.63,0,1,1,.79,1q-.66.54-1.35,1.05A.66.66,0,0,1,403.94,267.18Zm-54.71-1.64a.65.65,0,0,1-.41-.15c-.43-.36-.86-.74-1.28-1.12a.63.63,0,1,1,.85-.94l1.25,1.1a.63.63,0,0,1,.08.89A.64.64,0,0,1,349.23,265.54Zm59.8-2.78a.6.6,0,0,1-.45-.19.62.62,0,0,1,0-.89c.38-.4.77-.8,1.14-1.21a.63.63,0,1,1,.93.86c-.38.42-.77.83-1.17,1.24A.67.67,0,0,1,409,262.76Zm-64.61-1.94a.62.62,0,0,1-.48-.22c-.37-.43-.74-.86-1.1-1.3a.63.63,0,0,1,.09-.89.63.63,0,0,1,.89.09c.35.43.71.85,1.08,1.27a.63.63,0,0,1-.06.89A.61.61,0,0,1,344.42,260.82Zm69-3.21a.63.63,0,0,1-.51-1c.32-.45.64-.91.95-1.37a.63.63,0,1,1,1.05.7c-.32.48-.64.95-1,1.41A.62.62,0,0,1,413.38,257.61Zm-73-2.19a.62.62,0,0,1-.53-.29c-.31-.48-.6-1-.89-1.46a.63.63,0,0,1,1.09-.64c.28.48.57,1,.86,1.42a.63.63,0,0,1-.19.88A.67.67,0,0,1,340.38,255.42Zm76.52-3.56a.58.58,0,0,1-.28-.07.63.63,0,0,1-.28-.85c.25-.5.5-1,.73-1.5a.63.63,0,0,1,1.15.53c-.24.52-.49,1-.75,1.54A.64.64,0,0,1,416.9,251.86Zm-79.69-2.38a.64.64,0,0,1-.58-.38c-.23-.52-.44-1-.65-1.58a.63.63,0,0,1,1.18-.46q.3.78.63,1.53a.64.64,0,0,1-.32.84A.8.8,0,0,1,337.21,249.48Zm82.3-3.85a.63.63,0,0,1-.61-.83c.18-.52.34-1.05.49-1.59a.65.65,0,0,1,.79-.43.63.63,0,0,1,.43.78c-.16.55-.33,1.1-.5,1.64A.64.64,0,0,1,419.51,245.63ZM335,243.12a.64.64,0,0,1-.61-.47c-.14-.55-.28-1.11-.41-1.67a.63.63,0,0,1,.48-.75.64.64,0,0,1,.76.48c.12.54.25,1.08.39,1.61a.62.62,0,0,1-.45.77A.41.41,0,0,1,335,243.12Zm86.13-4H421a.63.63,0,0,1-.51-.73c.09-.54.17-1.09.24-1.64a.63.63,0,1,1,1.25.15c-.07.57-.15,1.14-.25,1.7A.63.63,0,0,1,421.12,239.09Zm-87.35-2.6a.65.65,0,0,1-.63-.57c-.06-.57-.11-1.13-.14-1.7a.63.63,0,1,1,1.26-.09c0,.55.09,1.11.14,1.66a.62.62,0,0,1-.56.69Zm87.94-4.12h0a.64.64,0,0,1-.63-.64v-.56c0-.37,0-.74,0-1.11a.62.62,0,0,1,.62-.64.6.6,0,0,1,.65.61c0,.38,0,.76,0,1.14v.57A.64.64,0,0,1,421.71,232.37Zm-88.13-2.62h0a.64.64,0,0,1-.61-.66c0-.58.07-1.15.11-1.71a.65.65,0,0,1,.69-.58.63.63,0,0,1,.57.69c0,.55-.08,1.1-.1,1.65A.64.64,0,0,1,333.58,229.75Zm87.71-4.11a.64.64,0,0,1-.63-.55c-.07-.55-.16-1.09-.26-1.64a.63.63,0,0,1,1.25-.22c.1.56.19,1.12.27,1.69a.63.63,0,0,1-.54.71Zm-86.89-2.58-.13,0a.63.63,0,0,1-.5-.74c.12-.56.24-1.12.37-1.67a.64.64,0,1,1,1.24.3c-.14.53-.26,1.07-.37,1.62A.63.63,0,0,1,334.4,223.06Zm85.45-4a.62.62,0,0,1-.61-.45c-.16-.53-.33-1.06-.51-1.58a.63.63,0,0,1,.39-.8.64.64,0,0,1,.81.39c.18.54.36,1.08.52,1.63a.64.64,0,0,1-.42.79Zm-83.62-2.48a.85.85,0,0,1-.22,0,.64.64,0,0,1-.37-.82c.2-.53.4-1.07.62-1.59a.63.63,0,1,1,1.17.48c-.21.51-.41,1-.6,1.55A.64.64,0,0,1,336.23,216.57Zm2.81-6.14a.54.54,0,0,1-.3-.08.63.63,0,0,1-.25-.86c.28-.5.56-1,.86-1.48a.63.63,0,1,1,1.08.66c-.29.47-.56,1-.83,1.43A.65.65,0,0,1,339,210.43Zm3.72-5.63a.63.63,0,0,1-.5-1c.35-.45.71-.89,1.07-1.33a.63.63,0,0,1,.89-.08.62.62,0,0,1,.08.89c-.35.43-.7.86-1,1.3A.63.63,0,0,1,342.76,204.8Zm4.52-5a.61.61,0,0,1-.45-.19.64.64,0,0,1,0-.9c.41-.39.83-.78,1.26-1.15a.63.63,0,1,1,.84.95c-.42.36-.83.74-1.23,1.12A.61.61,0,0,1,347.28,199.8Zm5.24-4.25a.64.64,0,0,1-.52-.27.63.63,0,0,1,.16-.88c.46-.33.94-.64,1.42-1a.63.63,0,1,1,.68,1.06q-.7.45-1.38.93A.69.69,0,0,1,352.52,195.55Zm5.81-3.41a.63.63,0,0,1-.57-.35.64.64,0,0,1,.29-.85c.51-.25,1-.49,1.55-.72a.65.65,0,0,1,.84.33.63.63,0,0,1-.33.83c-.51.22-1,.46-1.5.7A.71.71,0,0,1,358.33,192.14Zm6.27-2.48a.62.62,0,0,1-.61-.44.63.63,0,0,1,.42-.79c.54-.17,1.09-.33,1.64-.48a.64.64,0,0,1,.78.45.64.64,0,0,1-.45.78c-.54.14-1.07.29-1.6.46A.55.55,0,0,1,364.6,189.66Zm6.57-1.48a.64.64,0,0,1-.63-.55.63.63,0,0,1,.54-.71c.56-.09,1.13-.16,1.69-.22a.66.66,0,0,1,.7.56.63.63,0,0,1-.56.7l-1.65.21Z" fill="#0d6efd"/><path d="M415.87,209.85a.65.65,0,0,1-.55-.32c-.28-.48-.56-1-.86-1.43a.64.64,0,0,1,1.08-.67c.3.48.59,1,.88,1.47a.64.64,0,0,1-.23.86A.62.62,0,0,1,415.87,209.85Zm-3.8-5.58a.62.62,0,0,1-.49-.23c-.35-.44-.71-.86-1.07-1.28a.62.62,0,0,1,.07-.89.63.63,0,0,1,.89.06c.37.43.74.87,1.09,1.32a.63.63,0,0,1-.09.89A.66.66,0,0,1,412.07,204.27Zm-4.6-4.93a.62.62,0,0,1-.43-.16c-.41-.38-.82-.75-1.24-1.11a.63.63,0,0,1-.08-.89.65.65,0,0,1,.9-.07c.43.37.86.75,1.28,1.14a.62.62,0,0,1,0,.89A.59.59,0,0,1,407.47,199.34Zm-5.3-4.17a.58.58,0,0,1-.35-.11c-.46-.3-.93-.61-1.4-.9a.63.63,0,0,1-.21-.87.65.65,0,0,1,.88-.21c.48.31,1,.61,1.44.93a.64.64,0,0,1,.17.88A.63.63,0,0,1,402.17,195.17Zm-5.87-3.32a.66.66,0,0,1-.27-.06l-1.52-.68a.62.62,0,0,1-.33-.83A.64.64,0,0,1,395,190l1.56.69a.65.65,0,0,1,.31.85A.66.66,0,0,1,396.3,191.85ZM390,189.47a.57.57,0,0,1-.18,0c-.53-.15-1.06-.3-1.6-.43a.63.63,0,0,1,.3-1.23c.56.14,1.11.29,1.66.45a.63.63,0,0,1,.43.78A.64.64,0,0,1,390,189.47Zm-6.6-1.39h-.08c-.55-.07-1.1-.14-1.66-.19a.63.63,0,0,1-.57-.68.63.63,0,0,1,.69-.58l1.7.19a.63.63,0,0,1-.08,1.26Z" fill="#0d6efd"/><path d="M377.62,182.35a4.73,4.73,0,1,0,4.73,4.73A4.73,4.73,0,0,0,377.62,182.35Z" fill="#0d6efd"/><path d="M417.62,208.37a4.73,4.73,0,1,0,4.73,4.72A4.73,4.73,0,0,0,417.62,208.37Z" fill="#0d6efd"/><path d="M140.22,449.27h59.53l-1.54,6.07h-26v42.78h-6.07V455.34H138.69Z" fill="#0d6efd"/><path d="M215.8,498.12V476.76H260a10.49,10.49,0,0,0,4.19-.84,10.33,10.33,0,0,0,3.39-2.3,11,11,0,0,0,2.26-3.42,10.49,10.49,0,0,0,.84-4.19,10.26,10.26,0,0,0-.84-4.15,11,11,0,0,0-2.26-3.38,10.52,10.52,0,0,0-3.39-2.31,10.66,10.66,0,0,0-4.19-.83H215.8v-6.07H260a16.39,16.39,0,0,1,6.56,1.32,16.93,16.93,0,0,1,5.34,3.6,17.26,17.26,0,0,1,3.6,5.3,16.17,16.17,0,0,1,1.32,6.52,16.39,16.39,0,0,1-1.32,6.56,16.85,16.85,0,0,1-8.94,8.94,16.39,16.39,0,0,1-6.56,1.32h-4.39l21.21,15.29H266.6l-21.28-15.29H221.94v15.29Z" fill="#0d6efd"/><path d="M294.87,449.27H301v48.85h-6.14Z" fill="#0d6efd"/><path d="M334.64,449.27h41.25l-1.54,6.07H334.64a7.52,7.52,0,0,0-2.93.59,7.71,7.71,0,0,0-2.44,1.64A8,8,0,0,0,327.6,460a7.2,7.2,0,0,0-.63,3v21.36a7.05,7.05,0,0,0,.63,2.93,8,8,0,0,0,1.67,2.44,8.17,8.17,0,0,0,2.44,1.68,7.05,7.05,0,0,0,2.93.63c1.54-.05,3.2-.07,5-.07h23.45c1.84,0,3.53,0,5.06.07a8.53,8.53,0,0,0,3-.67,7.63,7.63,0,0,0,4.12-4,7.2,7.2,0,0,0,.63-3v-7.61H345.32l1.54-6.14H382v13.75a13.42,13.42,0,0,1-1.08,5.37,13.64,13.64,0,0,1-7.29,7.29,13.34,13.34,0,0,1-5.38,1.09h-.14c-1.53,0-3.22,0-5.06,0s-3.74,0-5.72,0l-6,0c-2,0-4,0-6,0H334.64a13.32,13.32,0,0,1-5.37-1.09,13.64,13.64,0,0,1-7.29-7.29,13.42,13.42,0,0,1-1.08-5.37V463a13.49,13.49,0,0,1,1.08-5.37,13.64,13.64,0,0,1,7.29-7.29A13.49,13.49,0,0,1,334.64,449.27Z" fill="#0d6efd"/><path d="M415.81,449.27h41.24l-1.54,6.07h-39.7a7.45,7.45,0,0,0-2.93.59,7.64,7.64,0,0,0-2.45,1.64,8.14,8.14,0,0,0-1.67,2.44,7.2,7.2,0,0,0-.63,3v21.36a7.05,7.05,0,0,0,.63,2.93,8.07,8.07,0,0,0,4.12,4.12,7,7,0,0,0,2.93.63c1.53-.05,3.19-.07,5-.07h23.44c1.84,0,3.53,0,5.06.07a8.53,8.53,0,0,0,3-.67,7.63,7.63,0,0,0,4.12-4,7.2,7.2,0,0,0,.63-3v-7.61H426.48l1.54-6.14h35.1v13.75a13.42,13.42,0,0,1-1.08,5.37,13.64,13.64,0,0,1-7.29,7.29,13.34,13.34,0,0,1-5.38,1.09h-.14c-1.53,0-3.22,0-5.06,0s-3.74,0-5.72,0l-6,0q-3,0-6,0H415.81a13.34,13.34,0,0,1-5.38-1.09,13.64,13.64,0,0,1-7.29-7.29,13.42,13.42,0,0,1-1.08-5.37V463a13.49,13.49,0,0,1,1.08-5.37,13.64,13.64,0,0,1,7.29-7.29A13.5,13.5,0,0,1,415.81,449.27Z" fill="#0d6efd"/><path d="M483.15,449.27h61.06l-1.54,6.07H483.15Zm0,48.85v-27.5H532l-1.54,6.07H489.22V492h55l-1.54,6.14Z" fill="#0d6efd"/><path d="M562.56,498.12V476.76h44.25a10.52,10.52,0,0,0,4.19-.84,10.19,10.19,0,0,0,3.38-2.3,11.16,11.16,0,0,0,2.27-3.42,10.49,10.49,0,0,0,.84-4.19,10.26,10.26,0,0,0-.84-4.15,11.22,11.22,0,0,0-2.27-3.38,10.37,10.37,0,0,0-3.38-2.31,10.69,10.69,0,0,0-4.19-.83H562.56v-6.07h44.25a16.46,16.46,0,0,1,6.56,1.32,16.9,16.9,0,0,1,8.93,8.9,16.18,16.18,0,0,1,1.33,6.52,16.4,16.4,0,0,1-1.33,6.56,16.9,16.9,0,0,1-3.59,5.34,17.16,17.16,0,0,1-5.34,3.6,16.46,16.46,0,0,1-6.56,1.32h-4.4l21.22,15.29H613.37l-21.29-15.29H568.71v15.29Z" fill="#0d6efd"/><path d="M177.2,511.73h16.07l-.57,2.37H177.2a3,3,0,0,0-2.09.88,3.17,3.17,0,0,0-.66.95,2.85,2.85,0,0,0-.24,1.17,2.78,2.78,0,0,0,.24,1.14,3.22,3.22,0,0,0,.66,1,3.12,3.12,0,0,0,.95.64,2.94,2.94,0,0,0,1.14.23h13.1a5.36,5.36,0,0,1,3.8,1.56,5.31,5.31,0,0,1,1.15,1.71,5.44,5.44,0,0,1,0,4.19,5.16,5.16,0,0,1-1.15,1.7,5.32,5.32,0,0,1-1.7,1.15,5.25,5.25,0,0,1-2.1.42H174.21l.6-2.4H190.3a2.76,2.76,0,0,0,1.16-.23,2.9,2.9,0,0,0,.94-.64,3,3,0,0,0,.64-.95,2.81,2.81,0,0,0,.23-1.15,2.91,2.91,0,0,0-.23-1.17,3,3,0,0,0-.64-1,2.9,2.9,0,0,0-2.1-.87H177.2a5.24,5.24,0,0,1-2.09-.42,5.48,5.48,0,0,1-1.71-1.15,5.4,5.4,0,0,1-1.14-1.7,5.18,5.18,0,0,1-.42-2.07,5.32,5.32,0,0,1,.42-2.1,5.26,5.26,0,0,1,2.85-2.84A5.24,5.24,0,0,1,177.2,511.73Z" fill="#0d6efd"/><path d="M224.52,517.1a5.32,5.32,0,0,1,.42-2.1,5.26,5.26,0,0,1,2.85-2.84,5.24,5.24,0,0,1,2.09-.43H243a5.42,5.42,0,0,1,3.8,1.57,5.43,5.43,0,0,1,1.15,1.7,5.32,5.32,0,0,1,.42,2.1v8.33a5.25,5.25,0,0,1-.42,2.1,5.42,5.42,0,0,1-2.85,2.85,5.25,5.25,0,0,1-2.1.42h-13.1a5.24,5.24,0,0,1-2.09-.42,5.48,5.48,0,0,1-1.71-1.15,5.36,5.36,0,0,1-1.56-3.8Zm2.4,8.33a3,3,0,0,0,.87,2.1,3,3,0,0,0,1,.64,2.77,2.77,0,0,0,1.14.23H243a3,3,0,0,0,2.13-.87,3.12,3.12,0,0,0,.64-.95,3,3,0,0,0,.23-1.15V517.1a3,3,0,0,0-.23-1.17,3.12,3.12,0,0,0-.64-.95,2.8,2.8,0,0,0-1-.64,2.93,2.93,0,0,0-1.18-.24h-13.1a3,3,0,0,0-2.73,1.83,2.84,2.84,0,0,0-.23,1.17Z" fill="#0d6efd"/><path d="M279.57,511.73V528.4H301l-.6,2.4H277.2V511.73Z" fill="#0d6efd"/><path d="M329.88,511.73h2.39v13.7a3,3,0,0,0,.88,2.1,3,3,0,0,0,1,.64,2.77,2.77,0,0,0,1.14.23h13.1a2.84,2.84,0,0,0,1.17-.23,2.89,2.89,0,0,0,1-.64,3.12,3.12,0,0,0,.64-.95,3,3,0,0,0,.23-1.15v-13.7h2.37v13.7a5.25,5.25,0,0,1-.42,2.1,5.32,5.32,0,0,1-1.15,1.7,5.43,5.43,0,0,1-1.7,1.15,5.25,5.25,0,0,1-2.1.42h-13.1a5.24,5.24,0,0,1-2.09-.42,5.36,5.36,0,0,1-1.71-1.15,5.36,5.36,0,0,1-1.56-3.8Z" fill="#0d6efd"/><path d="M383.16,511.73h23.23l-.6,2.37H395.66v16.7h-2.37V514.1H382.56Z" fill="#0d6efd"/><path d="M446,511.73h2.4V530.8H446Z" fill="#0d6efd"/><path d="M487.92,517.1a5.32,5.32,0,0,1,.42-2.1,5.29,5.29,0,0,1,2.84-2.84,5.33,5.33,0,0,1,2.1-.43h13.1a5.26,5.26,0,0,1,2.1.43,5.4,5.4,0,0,1,1.7,1.14,5.6,5.6,0,0,1,1.15,1.7,5.32,5.32,0,0,1,.42,2.1v8.33a5.25,5.25,0,0,1-.42,2.1,5.48,5.48,0,0,1-1.15,1.7,5.43,5.43,0,0,1-1.7,1.15,5.25,5.25,0,0,1-2.1.42h-13.1a5.32,5.32,0,0,1-2.1-.42,5.43,5.43,0,0,1-1.7-1.15,5.36,5.36,0,0,1-1.56-3.8Zm2.39,8.33a3,3,0,0,0,.23,1.15,3.12,3.12,0,0,0,.64.95,3,3,0,0,0,1,.64,2.77,2.77,0,0,0,1.14.23h13.1a2.84,2.84,0,0,0,1.17-.23,3,3,0,0,0,1-.64,3.12,3.12,0,0,0,.64-.95,3,3,0,0,0,.23-1.15V517.1a3,3,0,0,0-.23-1.17,3.12,3.12,0,0,0-.64-.95,3.06,3.06,0,0,0-2.13-.88h-13.1a2.78,2.78,0,0,0-1.14.24,2.84,2.84,0,0,0-1,.64,3.12,3.12,0,0,0-.64.95,3,3,0,0,0-.23,1.17Z" fill="#0d6efd"/><path d="M564.43,511.73V530.8h-2.21L543,515V530.8H540.6V511.73h2.2l19.26,15.86V511.73Z" fill="#0d6efd"/><path d="M598.64,511.73h16.07l-.57,2.37h-15.5a2.78,2.78,0,0,0-1.14.24,2.84,2.84,0,0,0-1,.64,3.15,3.15,0,0,0-.65.95,2.85,2.85,0,0,0-.25,1.17,2.79,2.79,0,0,0,.25,1.14,3,3,0,0,0,1.61,1.6,2.94,2.94,0,0,0,1.14.23h13.1a5.25,5.25,0,0,1,2.1.42,5.26,5.26,0,0,1,2.84,2.85,5.32,5.32,0,0,1,0,4.19,5.29,5.29,0,0,1-1.14,1.7,5.43,5.43,0,0,1-1.7,1.15,5.25,5.25,0,0,1-2.1.42h-16.1l.6-2.4h15.5a2.76,2.76,0,0,0,1.16-.23,3,3,0,0,0,.94-.64,3.12,3.12,0,0,0,.64-.95,3,3,0,0,0,.23-1.15,3,3,0,0,0-.87-2.12,3,3,0,0,0-.94-.64,2.93,2.93,0,0,0-1.16-.23h-13.1a5.32,5.32,0,0,1-2.1-.42,5.35,5.35,0,0,1-2.84-2.85,5.18,5.18,0,0,1-.42-2.07,5.32,5.32,0,0,1,.42-2.1,5.29,5.29,0,0,1,2.84-2.84A5.33,5.33,0,0,1,598.64,511.73Z" fill="#0d6efd"/></g></g></svg>